{"title":"PINK_FLOYD_THE_WALL[Original][1982]AC3-5.1-Dvdrip-Maka6358.avi","uid":4817492,"size":1468495872,"categoryP":"video","categoryS":"movies","magnet":"?xt=urn:btih:993ed2a2f0b8fd432140c78b696072653c5a78c6&amp;dn=PINK_FLOYD_THE_WALL%5BOriginal%5D%5B1982%5DAC3-5.1-Dvdrip-Maka6358.avi&amp;tr=udp%3A%2F%2Ftracker.openbittorrent.com%3A80&amp;tr=udp%3A%2F%2Fopen.demonii.com%3A1337&amp;tr=udp%3A%2F%2Ftracker.coppersurfer.tk%3A6969&amp;tr=udp%3A%2F%2Fexodus.desync.com%3A6969","seeders":1,"leechers":0,"uploader":"Maka6358","files":1,"time":1238616675,"description":"The movie tells the story of rock singer &quot;Pink&quot; who is sitting in his hotel room in Los Angeles, burnt out from the music business and only able to perform on stage with the help of drugs. Based on the 1979 double album &quot;The Wall&quot; by Pink Floyd, the film begins in Pink's youth where he is crushed by the love of his mother. Several years later he is punished by the teachers in school because he is starting to write poems. Slowly he begins to build a wall around himself to be protected from the world outside. The film shows all this in massive and epic pictures until the very end where he tears down the wall and breaks free.\n &lt;a href=&quot;\nhttp://www.imdb.com/title/tt0084503/&quot; rel=&quot;nofollow&quot; target=&quot;_NEW&quot;&gt;\nhttp://www.imdb.com/title/tt0084503/&lt;/a&gt;\n\nGeneral\nComplete name                    : PINK_FLOYD_THE_WALL[Original][1982]AC3-5.1-Dvdrip-Maka6358.avi\nFormat                           : AVI\nFormat/Info                      : Audio Video Interleave\nFile size                        : 1.37 GiB\nDuration                         : 1h 35mn\nOverall bit rate                 : 2 057 Kbps\nWriting application              : VirtualDubMod 1.5.4.1 (build 2178/release)\nWriting library                  : VirtualDubMod build 2178/release\n\nVideo\nFormat                           : MPEG-4 Visual\nFormat profile                   : Streaming Video@L1\nFormat settings, BVOP            : Yes\nFormat settings, QPel            : No\nFormat settings, GMC             : No warppoints\nFormat settings, Matrix          : Custom\nCodec ID                         : XVID\nCodec ID/Hint                    : XviD\nDuration                         : 1h 35mn\nBit rate                         : 1 603 Kbps\nWidth                            : 704 pixels\nHeight                           : 304 pixels\nDisplay aspect ratio             : 2.35\nFrame rate                       : 25.000 fps\nResolution                       : 24 bits\nColorimetry                      : 4:2:0\nScan type                        : Progressive\nBits/(Pixel*Frame)               : 0.300\nStream size                      : 1.07 GiB (78%)\nWriting library                  : XviD 1.2.0.dev47 (UTC 2006-11-01)\n\nAudio\nFormat                           : AC-3\nFormat/Info                      : Audio Coding 3\nCodec ID                         : 2000\nDuration                         : 1h 35mn\nBit rate mode                    : Constant\nBit rate                         : 448 Kbps\nChannel(s)                       : 6 channels\nChannel positions                : Front: L C R, Surround: L R, LFE\nSampling rate                    : 48.0 KHz\nStream size                      : 305 MiB (22%)\nAlignment                        : Split accross interleaves\nInterleave, duration             : 96 ms (2.40 video frames)\nInterleave, preload duration     : 96 ms\nLanguage                         : English\n\nInfo Hash                        : 993ED2A2F0B8FD432140C78B696072653C5A78C6\n\n","torrent":{"xt":"urn:btih:993ed2a2f0b8fd432140c78b696072653c5a78c6","amp;dn":"PINK_FLOYD_THE_WALL%5BOriginal%5D%5B1982%5DAC3-5.1-Dvdrip-Maka6358.avi","amp;tr":["udp%3A%2F%2Ftracker.openbittorrent.com%3A80","udp%3A%2F%2Fopen.demonii.com%3A1337","udp%3A%2F%2Ftracker.coppersurfer.tk%3A6969","udp%3A%2F%2Fexodus.desync.com%3A6969"],"infoHash":"993ed2a2f0b8fd432140c78b696072653c5a78c6","infoHashBuffer":{"type":"Buffer","data":[153,62,210,162,240,184,253,67,33,64,199,139,105,96,114,101,60,90,120,198]},"announce":[],"urlList":[]}}